<?xml version="1.0" encoding="UTF-8"?>
<svg width="45px" height="50px" viewBox="0 0 45 50" version="1.1" xmlns="http://www.w3.org/2000/svg" xmlns:xlink="http://www.w3.org/1999/xlink">
    <!-- Generator: Sketch 44.1 (41455) - http://www.bohemiancoding.com/sketch -->
    <title>relovate logo</title>
    <desc>Created with Sketch.</desc>
    <defs></defs>
    <g fill="#D11368">
        <path d="M8.80481019,35.684527 C10.4797504,37.4192865 12.4836966,38.7652206 14.5773719,39.6026907 C16.7009568,40.4700704 18.9142705,40.8289862 20.9780362,40.7990766 C23.0418017,40.7691668 24.9859287,40.3205222 26.6608689,39.66251 C28.3358091,39.0044978 29.7714721,38.1670276 30.878129,37.2398287 C31.0276772,37.1201901 31.1473158,37.0304611 31.296864,36.9108225 C31.4165026,36.791184 31.5660508,36.6715454 31.6856894,36.5519068 C31.9249665,36.3126296 32.1642437,36.1032621 32.4035209,35.8639849 C32.822256,35.4153403 33.2110814,34.9666955 33.5400874,34.5778701 C33.8391839,34.1591351 34.1083707,33.7703097 34.3476479,33.4413036 C34.5869251,33.1122975 34.7364733,32.7832913 34.8561119,32.5739239 C35.1252987,32.0953695 35.2748469,31.8261827 35.2748469,31.8261827 C35.3346662,31.7364538 35.3047566,31.5869055 35.185118,31.5270862 C35.0953891,31.4672669 34.9757504,31.4971766 34.9159311,31.6168152 L34.9159311,31.6467249 C34.9159311,31.6467249 34.7663829,31.886002 34.4971962,32.3645564 C34.3476479,32.5739239 34.1980996,32.90293 33.9588225,33.2020264 C33.7195453,33.5011229 33.4503585,33.8600386 33.151262,34.2787737 C32.822256,34.6376894 32.4334305,35.0564245 32.0146955,35.5050692 C31.7754183,35.7144367 31.5660508,35.9238043 31.296864,36.1331717 C31.1772254,36.2528103 31.0575868,36.3425392 30.9379483,36.4621778 C30.7884001,36.5519068 30.6687614,36.6715454 30.5192132,36.7612743 C29.4125563,37.628654 28.0367126,38.3763952 26.4215917,38.9745881 C24.8064708,39.5428713 22.9819824,39.9017871 21.0079458,39.8718775 C19.0638187,39.8419678 17.0000532,39.4531424 15.0858359,38.5857627 C13.1117992,37.7183829 11.3172205,36.4621778 9.82173816,34.7872377 C8.32625585,33.1422071 7.21959895,31.1681705 6.53167709,29.014676 C5.90357453,26.8611815 5.72411665,24.5880484 6.05312276,22.4345539 C6.11294205,21.8961803 6.23258063,21.3578066 6.38212887,20.8493426 C6.4718578,20.310969 6.68122533,19.8324146 6.8606832,19.3538603 L6.98032178,18.9949446 L7.15977966,18.6061192 L7.51869541,17.8284684 L7.66824365,17.4994622 L7.87761116,17.1704562 L8.26643656,16.512444 C9.37309347,14.7776845 10.8087565,13.3420215 12.3640581,12.2652742 C13.9193597,11.188527 15.5942999,10.5006051 17.179511,10.1117797 C18.7647223,9.7229543 20.2901142,9.57340608 21.6061387,9.69304466 C21.7855966,9.69304466 21.9351448,9.69304466 22.084693,9.7229543 C22.2342413,9.75286395 22.3837895,9.75286395 22.5632473,9.7827736 C22.8623439,9.81268325 23.1614403,9.87250254 23.4605368,9.90241218 C24.0288201,10.0220508 24.537284,10.171599 24.9859287,10.2613279 C25.4046638,10.4108762 25.7934891,10.5604244 26.1224952,10.6501533 C26.4515013,10.7697919 26.7805074,10.9492498 27.0197846,11.0389787 C27.5282486,11.2782559 27.7974354,11.3978945 27.7974354,11.3978945 L27.7974354,11.3978945 C28.4853573,11.7269006 29.2929177,11.4278041 29.5920142,10.7398823 C29.9210203,10.0519604 29.6219238,9.24439997 28.934002,8.94530351 C28.934002,8.94530351 28.9040923,8.94530351 28.9040923,8.91539386 C28.9040923,8.91539386 28.6349055,8.79575528 28.1264415,8.58638776 C27.8572547,8.46674917 27.5880679,8.31720094 27.1693329,8.19756236 C26.7505978,8.04801413 26.2421338,7.89846589 25.7037602,7.71900803 C25.1653865,7.59936944 24.5671936,7.44982121 23.8792718,7.33018262 C23.5502657,7.30027298 23.1913499,7.24045369 22.8324342,7.21054404 C22.6529763,7.1806344 22.4735184,7.1806344 22.2940606,7.15072475 C22.1146026,7.15072475 21.9052351,7.15072475 21.7257773,7.15072475 C20.1704757,7.09090545 18.4058065,7.30027298 16.5813181,7.80873696 C14.7568297,8.31720094 12.872522,9.18458068 11.1078529,10.4706955 C9.34318382,11.7568102 7.75797258,13.4317504 6.56158674,15.4356967 C6.41203851,15.7048836 6.26249028,15.9441607 6.1428517,16.2133475 L5.93348417,16.5722632 L5.90357453,16.6320825 L5.90357453,16.6619922 L5.87366488,16.7218115 L5.84375524,16.8115404 L5.75402629,17.020908 L5.42502019,17.7985587 L5.24556232,18.1873842 L5.09601409,18.6360288 C4.91655621,19.2342217 4.67727904,19.802505 4.5875501,20.4006979 C4.46791152,20.9988908 4.31836329,21.5970838 4.28845364,22.1952767 C3.98935718,24.617958 4.258544,27.1303683 5.0361948,29.4932303 C5.84375524,31.7962731 7.12987002,33.9497676 8.80481019,35.684527 Z"></path>
        <path d="M41.7201178,13.8442941 C40.16943,10.6371898 37.913884,7.85300027 35.341152,5.73842597 C32.733177,3.58860877 29.8080159,2.07316386 26.8828548,1.19209124 C23.9576937,0.31101862 21.0325326,0.064318285 18.3893147,0.24053281 C15.7460969,0.416747334 13.3495793,0.945390908 11.3407338,1.75597772 C11.0940334,1.86170643 10.8473331,1.93219224 10.6006328,2.03792096 C10.3539324,2.14364967 10.142475,2.24937839 9.89577465,2.3551071 C9.43761689,2.56656453 9.01470203,2.77802196 8.59178717,2.98947939 C7.78120036,3.44763715 7.07634226,3.90579492 6.40672707,4.29346687 C5.80759769,4.75162464 5.24371121,5.17453949 4.78555345,5.52696854 C4.29215278,5.87939759 3.97496663,6.26706955 3.65778049,6.54901279 C3.05865111,7.11289926 2.74146496,7.3948425 2.74146496,7.3948425 C2.60049334,7.50057122 2.60049334,7.71202865 2.74146496,7.81775736 C2.84719368,7.92348608 3.05865111,7.95872898 3.16437982,7.85300027 L3.19962273,7.81775736 C3.19962273,7.81775736 3.51680887,7.53581412 4.11593825,7.00717055 C4.4331244,6.76047021 4.75031054,6.40804117 5.24371121,6.05561212 C5.70186897,5.73842597 6.26575545,5.35075402 6.86488483,4.89259626 C7.49925712,4.54016721 8.20411522,4.11725235 9.01470203,3.69433749 C9.43761689,3.51812296 9.86053175,3.34190844 10.2834466,3.13045101 C10.494904,3.0247223 10.7416044,2.91899358 10.9530618,2.84850777 C11.1997621,2.77802196 11.4464625,2.67229325 11.6579199,2.60180744 C13.5962797,1.89694934 15.9223114,1.43879158 18.4245576,1.36830577 C20.9620468,1.26257705 23.7109934,1.6150061 26.424697,2.53132163 C29.1384007,3.44763715 31.8521044,4.96308206 34.1781361,7.00717055 C36.5746537,9.12174484 38.5130134,11.7297198 39.8522438,14.6901238 C41.1914742,17.6505278 41.8963323,20.9633609 41.8610894,24.2761939 C41.7906036,27.589027 40.9800168,30.8313743 39.5703006,33.7565354 C39.2531144,34.4966364 38.8301996,35.1662516 38.4072847,35.8711097 C38.0196128,36.5759678 37.5262121,37.1398542 37.0680543,37.7742265 L36.7156253,38.2323843 L36.2927104,38.690542 L35.4468807,39.6068576 L35.0592087,39.9945295 L34.6715368,40.3469586 L33.7904642,41.1223025 C31.4291895,43.0606623 28.7507288,44.4351355 26.1075109,45.2457224 C23.4290501,46.0563092 20.7858323,46.2677666 18.3540718,46.126795 C15.9223114,45.9505805 13.7372513,45.4571798 11.9398631,44.7170788 C11.7284057,44.646593 11.4817054,44.5408643 11.2702479,44.4703784 C11.0587905,44.3646497 10.8473331,44.258921 10.6358757,44.1531923 C10.2129608,43.9417349 9.82528884,43.7655203 9.43761689,43.5893058 C8.69751589,43.166391 8.0631436,42.7434761 7.46401422,42.3910471 C6.93537064,42.0033751 6.44196998,41.6157032 6.05429802,41.298517 C5.63138316,41.0165738 5.24371121,40.5936589 4.96176797,40.3117157 C4.36263859,39.7478292 4.04545244,39.465886 4.04545244,39.465886 L4.04545244,39.465886 C3.23486563,38.7257849 1.96612105,38.7610279 1.22602005,39.5716147 C0.485919049,40.3822015 0.521161954,41.6509461 1.33174877,42.3910471 L1.36699167,42.42629 C1.36699167,42.42629 1.68417782,42.7082332 2.3185501,43.2368768 C2.63573625,43.51882 2.95292239,43.8360062 3.51680887,44.2236781 C4.04545244,44.6113501 4.67982473,45.0695078 5.38468283,45.5629085 C6.08954093,45.9858234 6.90012774,46.4439811 7.74595746,46.9021389 C8.20411522,47.1135963 8.66227298,47.3250537 9.15567365,47.5365112 C9.40237399,47.6422399 9.64907432,47.7479686 9.89577465,47.8536973 C10.142475,47.959426 10.4244182,48.0299118 10.7063615,48.1356406 C12.8561787,48.9462274 15.4289107,49.439628 18.2131002,49.5453568 C20.9972897,49.6510855 24.0634224,49.2986564 27.0943122,48.2766122 C30.1252021,47.2898108 33.120849,45.6333943 35.7288239,43.3426055 C36.0460101,43.0606623 36.3631962,42.7434761 36.6803824,42.4615329 L37.173783,42.0033751 L37.2442688,41.9328893 L37.2795118,41.8976464 L37.3147547,41.8271606 L37.4204834,41.7214319 L37.6319408,41.4747315 L38.4425276,40.5231731 L38.8654425,40.0297724 L39.2531144,39.465886 C39.781758,38.7257849 40.3456445,37.9856839 40.7685593,37.21034 C41.2267171,36.4349961 41.6848749,35.6596522 42.002061,34.8138225 C43.482263,31.5362324 44.2576069,27.8709702 44.222364,24.240951 C44.1518782,20.6461747 43.2708056,17.0161555 41.7201178,13.8442941 Z"></path>
        <path d="M25.7737612,17.4842366 C25.7347955,17.0915746 25.4616064,16.8451791 25.1319259,16.6958822 C25.3234714,16.5717375 25.4669601,16.3979449 25.4884253,16.1354632 C25.5203958,15.7490892 25.1804625,15.4196613 24.8834344,15.2341765 C24.5239046,15.0097261 24.05518,14.9269208 23.6517853,15.0731874 C23.1774798,15.2453637 22.9406553,15.7162096 22.8708807,16.1891262 C21.3279859,15.6065602 19.3973284,17.3265303 18.5772307,18.4377974 C17.176663,20.3358026 17.5858911,22.7181641 18.8900926,24.5081362 C20.2817964,26.4180356 22.7015075,27.5988247 23.4135719,29.9681304 C23.8769429,31.510116 22.5967319,32.5166328 21.2607872,32.8950267 C20.0013596,33.2517786 18.5788469,33.0914713 17.476469,32.3819827 C17.7347587,32.1780884 17.7849116,31.8600496 17.6617012,31.5156717 C17.4734134,30.9893445 16.8815036,30.7401712 16.3642423,30.7236051 C15.9179173,30.7093623 15.5315433,31.0296991 15.4468694,31.458751 C15.380605,31.7942397 15.5385637,32.0840202 15.7704639,32.3040513 C14.9501389,32.5467093 14.7889225,33.4857748 15.2674454,34.3014784 C15.487224,34.6759328 15.8698605,35.0098054 16.3245948,34.9997798 C16.8322851,34.9885927 17.1332528,34.5107516 17.3185102,34.0627851 C19.0737086,34.9880876 21.1436881,35.2314274 22.9518424,34.2759979 C24.6550192,33.3761001 25.3717555,31.4932721 25.0966977,29.6547634 C24.7297182,27.2015161 22.7129219,25.7285728 21.1343444,24.0466087 C20.1649499,23.0137528 19.6245819,21.7312186 20.0048951,20.3154738 C20.4010673,18.8402324 21.8020895,17.9517743 23.2568001,17.8512161 C23.3373073,18.3264813 23.556606,18.8026808 24.0488919,18.9566496 C24.4732972,19.089633 24.9266426,18.8672785 25.2455653,18.6006047 C25.5621394,18.3363048 25.8157573,17.9083893 25.7737612,17.4842366 Z"></path>
    </g>
</svg>